<svg width="272" height="53" viewBox="0 0 272 53" fill="none" xmlns="http://www.w3.org/2000/svg">
<path d="M26.1119 0C40.5331 0 52.2238 11.7194 52.2238 26.176C52.2238 34.7388 48.1225 42.3411 41.7818 47.1168H47.0015C48.4436 47.1168 49.6126 48.2887 49.6126 49.7344C49.6126 51.1801 48.4436 52.352 47.0015 52.352H26.1119C11.6907 52.352 0 40.6325 0 26.176C0 11.7194 11.6907 0 26.1119 0Z" fill="white"/>
<path d="M63.2239 26.7221C63.2239 22.321 63.8297 18.7801 65.0417 16.0997C66.2537 13.3862 68.0554 11.4172 70.4473 10.1929C72.8709 8.93537 75.9007 8.30664 79.5363 8.30664C80.6526 8.30664 81.6572 8.33972 82.55 8.40592C83.475 8.43899 84.3361 8.52175 85.1332 8.6541C85.9625 8.78646 86.7597 8.95193 87.5251 9.15048C88.2905 9.31595 89.0719 9.53102 89.8691 9.79576L88.2426 16.4472C87.2859 16.2156 86.3609 16.0335 85.4681 15.9012C84.5752 15.7357 83.6981 15.6199 82.837 15.5537C82.0077 15.4544 81.1627 15.4048 80.3017 15.4048C78.7391 15.4048 77.3997 15.6033 76.2834 16.0004C75.1671 16.3975 74.2582 17.0263 73.5567 17.8867C72.8552 18.7471 72.329 19.9052 71.9781 21.3613C71.6271 22.7842 71.4518 24.5546 71.4518 26.6725C71.4518 28.5918 71.6114 30.2133 71.9302 31.537C72.2811 32.8605 72.8073 33.9196 73.5088 34.7138C74.2103 35.508 75.1035 36.0869 76.1877 36.4511C77.304 36.8152 78.6113 36.9971 80.1103 36.9971C81.5137 36.9971 82.9966 36.8811 84.5592 36.6496C86.1539 36.4181 87.6207 36.1203 88.9602 35.7561L90.3953 42.3579C89.6299 42.5894 88.8327 42.8213 88.0034 43.0528C87.1741 43.2514 86.2813 43.417 85.3246 43.5492C84.3996 43.7148 83.395 43.8304 82.3108 43.8967C81.2267 43.996 80.0464 44.0456 78.7709 44.0456C76.1877 44.0456 73.9233 43.7311 71.9781 43.1025C70.0328 42.4739 68.4063 41.4811 67.0987 40.1242C65.8231 38.7673 64.8503 36.9804 64.1806 34.7634C63.5427 32.5463 63.2239 29.8658 63.2239 26.7221ZM94.2712 43.5492V8.80302H102.356V43.5492H94.2712ZM107.632 43.5492V8.75338H115.286L127.963 30.5938V8.80302H135.138V43.5989H127.484L114.855 22.2051V43.5492H107.632ZM140.38 43.5492V8.80302H164.394V15.9508H148.464V22.5029H163.198V29.2536H148.464V36.4511H165.255V43.5492H140.38Z" fill="white"/>
<path d="M169.255 8.35748V43.9439H178.03V31.997H192.604V24.7272H177.979V15.8815H194.811V8.35748H169.255Z" fill="#5B0988"/>
<path d="M198.522 8.35748V43.9439H223.359V36.4199H207.246V8.35748H198.522Z" fill="#5B0988"/>
<path d="M227.087 8.35748V43.9439H235.759V8.35748H227.087Z" fill="#5B0988"/>
<path d="M249.476 25.6932L238.7 43.8931L249.117 44.0456L255.121 31.387L261.023 44.0456L271.286 43.8931L260.92 25.6423L270.722 8.40832L260.817 8.30664L255.429 20.1518L249.938 8.30664L239.572 8.40832L249.476 25.6932Z" fill="#5B0988"/>
<path d="M20.8896 36.6462C20.8896 33.7548 23.2276 31.411 26.112 31.411C28.9963 31.411 31.3344 33.7548 31.3344 36.6462C31.3344 39.5376 28.9963 41.8814 26.112 41.8814C23.2276 41.8814 20.8896 39.5376 20.8896 36.6462Z" fill="#5B0988"/>
<path d="M10.4448 26.1758C10.4448 23.2844 12.7829 20.9406 15.6672 20.9406C18.5514 20.9406 20.8896 23.2844 20.8896 26.1758C20.8896 29.0672 18.5514 31.411 15.6672 31.411C12.7829 31.411 10.4448 29.0672 10.4448 26.1758Z" fill="#5B0988"/>
<path d="M31.3344 26.1758C31.3344 23.2844 33.6724 20.9406 36.5567 20.9406C39.441 20.9406 41.7791 23.2844 41.7791 26.1758C41.7791 29.0672 39.441 31.411 36.5567 31.411C33.6724 31.411 31.3344 29.0672 31.3344 26.1758Z" fill="#5B0988"/>
<path d="M20.8896 15.7054C20.8896 12.8141 23.2276 10.4702 26.112 10.4702C28.9963 10.4702 31.3344 12.8141 31.3344 15.7054C31.3344 18.5967 28.9963 20.9406 26.112 20.9406C23.2276 20.9406 20.8896 18.5967 20.8896 15.7054Z" fill="#5B0988"/>
</svg>
