<svg width="26" height="26" viewBox="0 0 26 26" fill="none" xmlns="http://www.w3.org/2000/svg">
<path d="M24.7599 22.9906L19.0925 17.3232C20.457 15.5068 21.1935 13.2958 21.1911 11.024C21.1911 5.2211 16.47 0.5 10.6671 0.5C4.86417 0.5 0.143066 5.2211 0.143066 11.024C0.143066 16.8269 4.86417 21.548 10.6671 21.548C12.9389 21.5505 15.1499 20.8139 16.9663 19.4495L22.6337 25.1168C22.9205 25.3733 23.2947 25.5102 23.6794 25.4994C24.064 25.4886 24.4299 25.331 24.702 25.0589C24.9741 24.7869 25.1317 24.4209 25.1425 24.0363C25.1532 23.6516 25.0163 23.2775 24.7599 22.9906ZM3.14992 11.024C3.14992 9.53725 3.5908 8.08389 4.41679 6.8477C5.24278 5.61151 6.4168 4.64802 7.79038 4.07907C9.16396 3.51011 10.6754 3.36125 12.1336 3.6513C13.5918 3.94135 14.9312 4.65729 15.9825 5.70858C17.0338 6.75987 17.7497 8.0993 18.0398 9.55748C18.3298 11.0157 18.181 12.5271 17.612 13.9007C17.043 15.2743 16.0796 16.4483 14.8434 17.2743C13.6072 18.1003 12.1538 18.5411 10.6671 18.5411C8.67413 18.5387 6.7635 17.746 5.35428 16.3368C3.94507 14.9276 3.15231 13.0169 3.14992 11.024Z" fill="#9F64BC"/>
</svg>
